# xmcd
#
# Track frame offsets: 
#        150
#        25015
#        47414
#        67203
#        86960
#        114671
#        134223
#        162299
#        188116
#        209341
#
# Disc length: 3071 seconds
#
# Revision: 0
# Processed by: cddbd v1.5.2PL0 Copyright (c) Steve Scherf et al.
# Submitted via: ExactAudioCopy v1.3
#
DISCID=940bfd0a
DTITLE=Dave Steffen Band - Find A Groove
DYEAR=2008
DGENRE=Blues Rock
TTITLE0=Rock River 
TTITLE1=Soul to Soul 
TTITLE2=Sweet Girl 
TTITLE3=Find A Groove 
TTITLE4=Lazy Day Sunday Morning 
TTITLE5=Wisconsin Blues 
TTITLE6=Lost Soul 
TTITLE7=Dawn 
TTITLE8=Surf Song 
TTITLE9=Seaside Lady 
EXTD=
EXTT0=
EXTT1=
EXTT2=
EXTT3=
EXTT4=
EXTT5=
EXTT6=
EXTT7=
EXTT8=
EXTT9=
PLAYORDER=
